<?xml version="1.0" encoding="UTF-8"?>
<!DOCTYPE svg PUBLIC "-//W3C//DTD SVG 1.1//EN" "http://www.w3.org/Graphics/SVG/1.1/DTD/svg11.dtd">
<!-- Creator: CorelDRAW 2019 (64-Bit) -->
<svg xmlns="http://www.w3.org/2000/svg" xml:space="preserve" width="513px" height="197px" version="1.1" style="shape-rendering:geometricPrecision; text-rendering:geometricPrecision; image-rendering:optimizeQuality; fill-rule:evenodd; clip-rule:evenodd"
viewBox="0 0 518.2 199.02"
 xmlns:xlink="http://www.w3.org/1999/xlink"
 xmlns:xodm="http://www.corel.com/coreldraw/odm/2003">
 <defs>
  <style type="text/css">
   <![CDATA[
    .fil0 {fill:#34C0A3;fill-rule:nonzero}
   ]]>
  </style>
 </defs>
 <g id="logo">
  <metadata id="CorelCorpID_0Corel-Layer"/>
  <g id="_1909699876848">
   <g>
    <g>
     <path class="fil0" d="M146.47 42.07l12.29 0 0 79.85 -12.29 0 0 -79.85zm35.94 79.85l0 0 12.3 0 0 -58.17 -12.3 0 0 58.17zm223.39 -51.37l0 0c4.83,5.48 7.29,12.99 7.29,22.31 0,9.32 -2.46,16.82 -7.3,22.28 -4.88,5.52 -11.49,8.31 -19.64,8.31 -8.22,0 -14.85,-2.79 -19.72,-8.31 -4.82,-5.46 -7.27,-12.96 -7.27,-22.28 0,-9.32 2.45,-16.83 7.27,-22.3 4.87,-5.54 11.5,-8.34 19.72,-8.34 8.15,0 14.76,2.8 19.65,8.33zm-5.31 22.31l0 0c0,-6.76 -1.3,-11.8 -3.86,-14.98 -2.52,-3.13 -5.95,-4.65 -10.48,-4.65 -4.6,0 -8.05,1.52 -10.55,4.65 -2.55,3.18 -3.85,8.22 -3.85,14.98 0,6.54 1.31,11.52 3.88,14.8 2.52,3.22 5.96,4.78 10.52,4.78 4.49,0 7.91,-1.55 10.45,-4.74 2.58,-3.25 3.89,-8.24 3.89,-14.84zm105.41 -29.11l0 0 0 58.17 12.3 0 0 -58.17 -12.3 0zm-275.34 4.56l0 0 0 -4.56 -12.3 0 0 58.17 12.3 0 0 -30.67 0 -11.27 0 -11.67zm31.77 -0.19l0 0c-3.41,-3.92 -8.38,-5.9 -14.76,-5.9 -2.05,0 -4.08,0.26 -6.08,0.76l0 11.5c1.18,-0.27 2.34,-0.41 3.46,-0.41 2.25,0 4.07,0.3 5.42,0.89 1.27,0.55 2.2,1.36 2.89,2.51 0.67,1.06 1.14,2.61 1.41,4.6 0.28,2.15 0.43,4.48 0.43,6.94l0 32.91 12.29 0 0 -37.31c0,-7.09 -1.7,-12.64 -5.06,-16.49zm183.1 0.19l0 0c0,0 0,0 -0.01,0l0 -4.56 -12.29 0 0 58.17 12.29 0 0 -41.94c0.01,0 0.01,0 0.01,-0.01l0 -11.66zm31.77 -0.19l0 0c-3.41,-3.92 -8.38,-5.9 -14.76,-5.9 -2.05,0 -4.08,0.26 -6.07,0.76l0 11.5c1.18,-0.27 2.33,-0.41 3.45,-0.41 2.25,0 4.07,0.3 5.42,0.89 1.26,0.55 2.2,1.36 2.88,2.51 0.67,1.06 1.15,2.61 1.41,4.6 0.29,2.15 0.44,4.48 0.44,6.94l0 32.91 12.29 0 0 -37.31c0,-7.09 -1.7,-12.64 -5.06,-16.49zm-150.36 -4.37l0 0 0 12.41 0 13.68 0 14.66c-1.99,1.45 -4.18,2.63 -6.51,3.52 -2.53,0.97 -5.09,1.46 -7.59,1.46 -4.55,0 -7.68,-1.35 -9.57,-4.13 -1.99,-2.93 -3,-7.38 -3,-13.23 0,-6.12 1.36,-10.81 4.04,-13.93 2.65,-3.11 6.22,-4.61 10.9,-4.61 0.27,0 0.53,0.01 0.8,0.02l0 -11.32c-0.78,-0.04 -1.59,-0.06 -2.43,-0.06 -3.21,0 -6.49,0.69 -9.72,2.07 -3.25,1.38 -6.05,3.34 -8.32,5.82 -2.42,2.63 -4.36,5.79 -5.76,9.39 -1.39,3.6 -2.1,7.91 -2.1,12.82 0,8.97 2.07,16.06 6.14,21.07 4.15,5.1 9.82,7.69 16.85,7.69 4.14,0 7.62,-0.6 10.35,-1.78 1.91,-0.82 3.89,-1.95 5.92,-3.38l0 2.03c0,2.09 -0.23,4 -0.69,5.67 -0.43,1.58 -1.14,2.93 -2.16,4.06 -0.97,1.15 -2.39,2.06 -4.21,2.73 -1.9,0.69 -4.37,1.04 -7.33,1.04 -3.15,0 -6.34,-0.42 -9.49,-1.26 -3.23,-0.85 -5.6,-1.57 -7.05,-2.14l-0.27 -0.1 -2.28 0 0 12.13 1.1 0.3c2.74,0.77 5.57,1.38 8.41,1.8 2.84,0.42 5.8,0.63 8.79,0.63 9.2,0 16.16,-2.36 20.68,-7.02 4.51,-4.65 6.8,-11.93 6.8,-21.65l0 -50.39 -12.3 0z"/>
    </g>
    <g>
     <g>
      <path class="fil0" d="M73.69 163.99c-0.33,0 -0.65,-0.02 -0.98,-0.05l-0.17 -0.03c-1.19,-0.18 -2.23,-0.58 -3.06,-0.89l-0.45 -0.17c-5.25,-1.91 -11.62,-6.23 -18.37,-10.81 -5.45,-3.7 -11.07,-7.51 -15.26,-9.36l-9.02 2.34c-4,1.04 -7.91,0.43 -11.32,-1.74 -6.26,-4 -9.8,-12.68 -11.04,-19.47l-0.03 -0.19c-1.27,-9.62 -2.26,-27.68 -2.98,-40.87 -0.19,-3.42 -0.36,-6.5 -0.5,-9l-0.01 -0.2 -0.5 -41.44 0.03 -0.95c0.1,-2.95 0.23,-5.91 0.39,-8.82l0.01 -0.19c0.67,-6.62 3.59,-15.22 9.79,-19.52 3.68,-2.55 8.04,-3.26 12.62,-2.06l77.9 20.18c9.22,2.23 17.82,11.32 15.94,21.33 -3.12,17.01 -4.59,47.82 -4.63,64.25 -0.02,9.26 -7.47,18.59 -16.62,20.79l-20.79 5.39c0.88,2.56 2.04,5.73 3.11,8.65 1.84,5.01 3.57,9.74 4.23,12.26 0.71,2.7 0.07,5.46 -1.77,7.58 -1.65,1.91 -4.04,2.99 -6.52,2.99zm-37.78 -29.91l0 0 1.21 0.45c5.2,1.95 11.49,6.21 18.15,10.73 6.03,4.1 12.27,8.33 16.57,9.89l0.52 0.2c0.51,0.19 0.99,0.37 1.34,0.45 0.14,-0.01 0.25,-0.09 0.32,-0.16 0.06,-0.07 0.05,-0.09 0.04,-0.14 -0.57,-2.14 -2.31,-6.91 -4,-11.52 -2,-5.43 -3.88,-10.57 -4.58,-13.35l-1.01 -3.95 28.98 -7.51c5.56,-1.34 10.39,-7.34 10.4,-12.86 0.05,-16.74 1.56,-48.2 4.77,-65.72 0.98,-5.23 -4.38,-10.57 -9.83,-11.88l-0.07 -0.01 -77.95 -20.2c-2.3,-0.61 -4.16,-0.33 -5.87,0.86 -3.65,2.53 -5.79,8.59 -6.3,13.51 -0.15,2.83 -0.28,5.71 -0.38,8.57l-0.02 0.75 0.49 41.17c0.15,2.49 0.32,5.55 0.5,8.95 0.71,13 1.68,30.8 2.91,40.13 0.94,5.06 3.63,11.54 7.37,13.93 1.5,0.96 3.04,1.18 4.85,0.71l11.59 -3z"/>
     </g>
     <g>
      <path class="fil0" d="M50.67 92.03c0,6.1 -4.94,11.04 -11.04,11.04 -6.09,0 -11.03,-4.94 -11.03,-11.04 0,-6.1 4.94,-11.04 11.03,-11.04 6.1,0 11.04,4.94 11.04,11.04z"/>
      <path class="fil0" d="M87.77 89.44c0,6.1 -4.94,11.04 -11.04,11.04 -6.09,0 -11.04,-4.94 -11.04,-11.04 0,-6.1 4.95,-11.04 11.04,-11.04 6.1,0 11.04,4.94 11.04,11.04z"/>
     </g>
    </g>
   </g>
   <g>
    <g>
     <path class="fil0" d="M172.57 198.2c-2.24,0.55 -4.68,0.82 -7.32,0.82 -2.74,0 -5.26,-0.43 -7.56,-1.3 -2.3,-0.87 -4.28,-2.09 -5.94,-3.67 -1.66,-1.58 -2.95,-3.47 -3.89,-5.68 -0.93,-2.2 -1.4,-4.66 -1.4,-7.36 0,-2.74 0.48,-5.22 1.43,-7.44 0.95,-2.22 2.26,-4.11 3.93,-5.67 1.68,-1.57 3.64,-2.76 5.9,-3.6 2.25,-0.84 4.68,-1.26 7.29,-1.26 2.7,0 5.22,0.41 7.53,1.23 2.32,0.82 4.21,1.93 5.66,3.31l-5.22 5.94c-0.81,-0.93 -1.87,-1.7 -3.19,-2.29 -1.32,-0.6 -2.82,-0.9 -4.49,-0.9 -1.45,0 -2.79,0.27 -4.01,0.8 -1.22,0.53 -2.29,1.27 -3.19,2.22 -0.9,0.95 -1.6,2.08 -2.1,3.38 -0.5,1.31 -0.75,2.73 -0.75,4.28 0,1.58 0.23,3.03 0.68,4.35 0.45,1.32 1.12,2.45 2,3.4 0.89,0.95 1.98,1.69 3.29,2.22 1.3,0.53 2.79,0.8 4.47,0.8 0.96,0 1.88,-0.07 2.75,-0.22 0.87,-0.14 1.67,-0.38 2.41,-0.7l0 -6.23 -6.52 0 0 -6.66 14.11 0 0 18.11c-1.68,0.87 -3.63,1.58 -5.87,2.12z"/>
     <polygon class="fil0" points="189.11,198.15 189.11,163.96 212.1,163.96 212.1,170.91 197.08,170.91 197.08,177.39 211.28,177.39 211.28,184 197.08,184 197.08,191.1 212.97,191.1 212.97,198.15 "/>
     <path class="fil0" d="M240.64 198.15l-7.42 -13.57 -2.82 0 0 13.57 -8.06 0 0 -34.19 13.04 0c1.64,0 3.24,0.17 4.8,0.51 1.57,0.33 2.97,0.91 4.21,1.71 1.24,0.81 2.23,1.87 2.97,3.19 0.74,1.32 1.11,2.96 1.11,4.92 0,2.32 -0.63,4.27 -1.89,5.85 -1.25,1.58 -2.99,2.7 -5.21,3.38l8.93 14.63 -9.66 0zm-0.33 -23.71l0 0c0,-0.8 -0.18,-1.46 -0.51,-1.96 -0.34,-0.49 -0.78,-0.88 -1.31,-1.16 -0.54,-0.27 -1.14,-0.45 -1.8,-0.55 -0.66,-0.1 -1.3,-0.15 -1.92,-0.15l-4.41 0 0 7.97 3.93 0c0.68,0 1.37,-0.05 2.09,-0.17 0.71,-0.11 1.35,-0.31 1.94,-0.6 0.58,-0.29 1.06,-0.71 1.43,-1.25 0.37,-0.55 0.56,-1.26 0.56,-2.13z"/>
     <polygon class="fil0" points="289.28,198.15 289.47,173.96 289.33,173.96 280.44,198.15 274.64,198.15 266,173.96 265.85,173.96 266.05,198.15 258.27,198.15 258.27,163.96 270.02,163.96 277.81,185.89 278,185.89 285.45,163.96 297.39,163.96 297.39,198.15 "/>
     <path class="fil0" d="M331.49 198.15l-2.66 -6.71 -13.23 0 -2.51 6.71 -8.98 0 14.34 -34.19 8.02 0 14.2 34.19 -9.18 0zm-9.18 -25.06l0 0 -4.34 11.73 8.59 0 -4.25 -11.73z"/>
     <polygon class="fil0" points="369.16,198.15 355.4,175.79 355.25,175.79 355.45,198.15 347.43,198.15 347.43,163.96 356.85,163.96 370.56,186.27 370.71,186.27 370.51,163.96 378.53,163.96 378.53,198.15 "/>
    </g>
   </g>
  </g>
 </g>
</svg>
