<?xml version="1.0" encoding="UTF-8"?>
<!DOCTYPE svg PUBLIC "-//W3C//DTD SVG 1.1//EN" "http://www.w3.org/Graphics/SVG/1.1/DTD/svg11.dtd">
<!-- Creator: CorelDRAW 2019 (64-Bit) -->
<svg xmlns="http://www.w3.org/2000/svg" xml:space="preserve" width="512px" height="162px" version="1.1" style="shape-rendering:geometricPrecision; text-rendering:geometricPrecision; image-rendering:optimizeQuality; fill-rule:evenodd; clip-rule:evenodd"
viewBox="0 0 2925.11 925.69"
 xmlns:xlink="http://www.w3.org/1999/xlink"
 xmlns:xodm="http://www.corel.com/coreldraw/odm/2003">
 <defs>
  <style type="text/css">
   <![CDATA[
    .fil0 {fill:#155C8F;fill-rule:nonzero}
   ]]>
  </style>
 </defs>
 <g id="Layer_x0020_1">
  <metadata id="CorelCorpID_0Corel-Layer"/>
  <g id="_2174000853056">
   <g>
    <g>
     <path class="fil0" d="M826.78 235.13l69.41 0 0 450.75 -69.41 0 0 -450.75zm202.9 450.75l0 0 69.41 0 0 -328.37 -69.41 0 0 328.37zm1260.95 -289.96l0 0c27.31,30.92 41.16,73.29 41.16,125.91 0,52.64 -13.85,94.96 -41.16,125.79 -27.58,31.12 -64.89,46.91 -110.9,46.91 -46.39,0 -83.84,-15.79 -111.33,-46.92 -27.21,-30.83 -41.01,-73.14 -41.01,-125.78 0,-52.62 13.8,-94.98 41.01,-125.9 27.49,-31.23 64.94,-47.06 111.33,-47.06 46.01,0 83.32,15.83 110.9,47.05zm-29.92 125.91l0 0c0,-38.14 -7.34,-66.59 -21.81,-84.56 -14.23,-17.66 -33.59,-26.24 -59.17,-26.24 -25.95,0 -45.44,8.58 -59.57,26.22 -14.39,17.97 -21.69,46.43 -21.69,84.58 0,36.9 7.37,65.01 21.89,83.55 14.22,18.15 33.64,26.98 59.37,26.98 25.38,0 44.67,-8.75 58.99,-26.75 14.59,-18.35 21.99,-46.53 21.99,-83.78zm594.99 -164.32l0 0 0 328.37 69.41 0 0 -328.37 -69.41 0zm-1554.27 25.76l0 0 0 -25.76 -69.41 0 0 328.37 69.41 0 0 -173.16 0 -63.58 0 -65.87zm179.38 -1.11l0 0c-19.26,-22.09 -47.31,-33.29 -83.35,-33.29 -11.56,0 -23.03,1.47 -34.31,4.32l0 64.92c6.69,-1.55 13.22,-2.34 19.54,-2.34 12.69,0 22.98,1.68 30.61,5 7.13,3.11 12.41,7.69 16.28,14.17 3.78,5.99 6.46,14.74 7.96,26 1.61,12.1 2.43,25.28 2.43,39.15l0 185.79 69.41 0 0 -210.6c0,-40.03 -9.61,-71.36 -28.57,-93.12zm1033.57 1.07l0 0c-0.02,0.01 -0.04,0.03 -0.06,0.04l0 -25.76 -69.41 0 0 328.37 69.41 0 0 -236.74c0.02,-0.01 0.04,-0.03 0.06,-0.04l0 -65.87zm179.32 -1.07l0 0c-19.27,-22.09 -47.31,-33.29 -83.35,-33.29 -11.54,0 -23,1.46 -34.26,4.31l0 64.92c6.68,-1.54 13.19,-2.33 19.49,-2.33 12.68,0 22.98,1.68 30.6,5 7.13,3.11 12.42,7.69 16.28,14.17 3.79,5.99 6.47,14.74 7.97,26 1.61,12.1 2.43,25.28 2.43,39.15l0 185.79 69.41 0 0 -210.6c0,-40.03 -9.61,-71.36 -28.57,-93.12zm-848.75 -24.65l0 0 0 70.07 0 77.19 0 82.77c-11.23,8.16 -23.58,14.84 -36.76,19.87 -14.29,5.46 -28.7,8.23 -42.83,8.23 -25.67,0 -43.34,-7.63 -54.01,-23.32 -11.23,-16.51 -16.93,-41.63 -16.93,-74.67 0,-34.54 7.66,-61 22.77,-78.65 14.98,-17.51 35.11,-26.02 61.55,-26.02 1.49,0 3,0.08 4.49,0.13l0 -63.87c-4.38,-0.25 -8.95,-0.37 -13.69,-0.37 -18.16,0 -36.62,3.93 -54.89,11.68 -18.33,7.79 -34.14,18.86 -46.97,32.87 -13.67,14.85 -24.6,32.68 -32.48,53 -7.87,20.32 -11.86,44.66 -11.86,72.35 0,50.65 11.66,90.68 34.66,118.96 23.42,28.81 55.42,43.42 95.1,43.42 23.37,0 43.03,-3.38 58.43,-10.04 10.75,-4.65 21.95,-11.05 33.42,-19.09l0 11.42c0,11.83 -1.31,22.61 -3.88,32.05 -2.43,8.89 -6.48,16.54 -12.2,22.92 -5.52,6.46 -13.51,11.63 -23.77,15.38 -10.72,3.91 -24.65,5.89 -41.41,5.89 -17.75,0 -35.78,-2.39 -53.57,-7.1 -18.21,-4.83 -31.59,-8.9 -39.78,-12.1l-1.49 -0.59 -12.9 0 0 68.47 6.21 1.74c15.49,4.35 31.46,7.75 47.47,10.12 16.05,2.37 32.74,3.58 49.6,3.58 51.96,0 91.25,-13.34 116.77,-39.66 25.45,-26.24 38.36,-67.34 38.36,-122.16l0 -284.47 -69.41 0z"/>
    </g>
   </g>
   <g>
    <g>
     <path class="fil0" d="M415.95 925.69c-1.83,0 -3.67,-0.1 -5.51,-0.31l-0.98 -0.13c-6.7,-1.06 -12.57,-3.26 -17.28,-5.04l-2.52 -0.94c-29.62,-10.78 -65.59,-35.19 -103.67,-61.02 -30.77,-20.89 -62.5,-42.41 -86.19,-52.86l-50.9 13.19c-22.56,5.87 -44.66,2.47 -63.9,-9.82 -35.32,-22.56 -55.34,-71.55 -62.29,-109.87l-0.17 -1.09c-7.21,-54.31 -12.78,-156.25 -16.84,-230.68 -1.05,-19.33 -2,-36.73 -2.85,-50.82l-0.04 -1.11 -2.81 -233.94 0.18 -5.35c0.57,-16.64 1.3,-33.4 2.17,-49.79l0.09 -1.09c3.75,-37.33 20.24,-85.88 55.27,-110.19 20.73,-14.4 45.36,-18.41 71.22,-11.61l439.72 113.93c52.07,12.57 100.6,63.89 89.95,120.41 -17.58,96 -25.86,269.89 -26.11,362.67 -0.09,52.25 -42.17,104.9 -93.79,117.35l-117.37 30.41c4.94,14.44 11.5,32.32 17.56,48.84 10.36,28.26 20.15,54.95 23.89,69.17 4.01,15.25 0.37,30.85 -9.99,42.81 -9.34,10.79 -22.81,16.88 -36.84,16.88zm-213.27 -168.83l0 0 6.83 2.55c29.38,10.97 64.88,35.05 102.46,60.55 34.07,23.12 69.29,47.03 93.54,55.85l2.96 1.1c2.85,1.07 5.55,2.09 7.55,2.52 0.77,-0.03 1.44,-0.48 1.8,-0.9 0.32,-0.37 0.3,-0.46 0.22,-0.77 -3.18,-12.1 -13.05,-38.99 -22.58,-65 -11.26,-30.69 -21.89,-59.68 -25.87,-75.38l-5.66 -22.3 163.55 -42.38c31.42,-7.58 58.69,-41.45 58.75,-72.58 0.26,-94.52 8.77,-272.09 26.89,-371.01 5.55,-29.48 -24.7,-59.66 -55.45,-67.02l-0.42 -0.11 -440 -114c-12.99,-3.42 -23.5,-1.86 -33.16,4.85 -20.6,14.29 -32.67,48.51 -35.57,76.29 -0.84,15.94 -1.55,32.21 -2.11,48.38l-0.14 4.23 2.79 232.35c0.84,14.07 1.79,31.35 2.83,50.52 4.01,73.41 9.49,173.86 16.44,226.55 5.28,28.54 20.47,65.15 41.57,78.62 8.47,5.41 17.17,6.69 27.37,4.03l65.41 -16.94z"/>
    </g>
    <g>
     <path class="fil0" d="M286.04 519.48c0,34.42 -27.89,62.32 -62.31,62.32 -34.42,0 -62.31,-27.9 -62.31,-62.32 0,-34.41 27.89,-62.31 62.31,-62.31 34.42,0 62.31,27.9 62.31,62.31z"/>
     <path class="fil0" d="M495.45 504.87c0,34.41 -27.89,62.31 -62.31,62.31 -34.41,0 -62.31,-27.9 -62.31,-62.31 0,-34.42 27.9,-62.32 62.31,-62.32 34.42,0 62.31,27.9 62.31,62.32z"/>
    </g>
   </g>
  </g>
 </g>
</svg>
