<?xml version="1.0" encoding="UTF-8"?>
<!DOCTYPE svg PUBLIC "-//W3C//DTD SVG 1.1//EN" "http://www.w3.org/Graphics/SVG/1.1/DTD/svg11.dtd">
<!-- Creator: CorelDRAW 2019 (64-Bit) -->
<svg xmlns="http://www.w3.org/2000/svg" xml:space="preserve" width="511px" height="196px" version="1.1" style="shape-rendering:geometricPrecision; text-rendering:geometricPrecision; image-rendering:optimizeQuality; fill-rule:evenodd; clip-rule:evenodd"
viewBox="0 0 430.85 165.43"
 xmlns:xlink="http://www.w3.org/1999/xlink"
 xmlns:xodm="http://www.corel.com/coreldraw/odm/2003">
 <defs>
  <style type="text/css">
   <![CDATA[
    .fil0 {fill:#5F7ED8;fill-rule:nonzero}
   ]]>
  </style>
 </defs>
 <g id="logo">
  <metadata id="CorelCorpID_0Corel-Layer"/>
  <g id="_2620585152192">
   <g>
    <g>
     <g>
      <g>
       <path class="fil0" d="M121.78 34.98l10.22 0 0 66.39 -10.22 0 0 -66.39zm29.88 66.39l0 0 10.23 0 0 -48.37 -10.23 0 0 48.37zm185.73 -42.71l0 0c4.03,4.56 6.06,10.8 6.06,18.55 0,7.75 -2.03,13.98 -6.06,18.52 -4.06,4.59 -9.56,6.91 -16.33,6.91 -6.83,0 -12.35,-2.32 -16.4,-6.91 -4.01,-4.54 -6.04,-10.77 -6.04,-18.52 0,-7.75 2.03,-13.99 6.04,-18.55 4.05,-4.6 9.57,-6.93 16.4,-6.93 6.77,0 12.27,2.33 16.33,6.93zm-4.4 18.55l0 0c0,-5.62 -1.09,-9.81 -3.22,-12.46 -2.09,-2.6 -4.94,-3.86 -8.71,-3.86 -3.82,0 -6.69,1.26 -8.78,3.86 -2.12,2.65 -3.19,6.84 -3.19,12.46 0,5.43 1.08,9.57 3.22,12.3 2.1,2.68 4.96,3.98 8.75,3.98 3.74,0 6.58,-1.29 8.69,-3.94 2.15,-2.71 3.24,-6.86 3.24,-12.34zm87.63 -24.21l0 0 0 48.37 10.23 0 0 -48.37 -10.23 0zm-228.93 3.8l0 0 0 -3.8 -10.22 0 0 48.37 10.22 0 0 -25.5 0 -9.37 0 -9.7zm26.42 -0.17l0 0c-2.84,-3.25 -6.97,-4.9 -12.27,-4.9 -1.71,0 -3.4,0.22 -5.06,0.64l0 9.56c0.99,-0.23 1.95,-0.35 2.88,-0.35 1.87,0 3.39,0.25 4.51,0.74 1.05,0.46 1.83,1.13 2.4,2.09 0.55,0.88 0.95,2.17 1.17,3.83 0.24,1.78 0.36,3.72 0.36,5.76l0 27.37 10.22 0 0 -31.02c0,-5.9 -1.41,-10.51 -4.21,-13.72zm152.24 0.16l0 0c0,0 -0.01,0.01 -0.01,0.01l0 -3.8 -10.22 0 0 48.37 10.22 0 0 -34.87c0,0 0.01,0 0.01,-0.01l0 -9.7zm26.41 -0.16l0 0c-2.84,-3.25 -6.97,-4.9 -12.28,-4.9 -1.7,0 -3.38,0.22 -5.04,0.63l0 9.57c0.98,-0.23 1.94,-0.35 2.87,-0.35 1.87,0 3.38,0.25 4.51,0.74 1.05,0.46 1.83,1.13 2.39,2.09 0.56,0.88 0.96,2.17 1.18,3.83 0.24,1.78 0.36,3.72 0.36,5.76l0 27.37 10.22 0 0 -31.02c0,-5.9 -1.42,-10.51 -4.21,-13.72zm-125.01 -3.63l0 0 0 10.32 0 11.37 0 12.2c-1.66,1.2 -3.48,2.18 -5.42,2.92 -2.1,0.81 -4.22,1.21 -6.3,1.21 -3.79,0 -6.39,-1.12 -7.96,-3.43 -1.66,-2.43 -2.49,-6.13 -2.49,-11 0,-5.09 1.12,-8.98 3.35,-11.58 2.21,-2.58 5.17,-3.84 9.07,-3.84 0.22,0 0.44,0.02 0.66,0.02l0 -9.4c-0.65,-0.04 -1.32,-0.06 -2.02,-0.06 -2.67,0 -5.39,0.58 -8.08,1.72 -2.71,1.15 -5.03,2.78 -6.92,4.84 -2.02,2.19 -3.63,4.82 -4.79,7.81 -1.16,2.99 -1.74,6.58 -1.74,10.66 0,7.46 1.71,13.35 5.1,17.52 3.45,4.24 8.16,6.39 14.01,6.39 3.44,0 6.34,-0.5 8.6,-1.48 1.59,-0.68 3.24,-1.62 4.93,-2.81l0 1.69c0,1.74 -0.2,3.32 -0.57,4.72 -0.36,1.3 -0.96,2.43 -1.8,3.37 -0.81,0.95 -1.99,1.71 -3.5,2.27 -1.58,0.57 -3.63,0.86 -6.1,0.86 -2.62,0 -5.27,-0.35 -7.89,-1.04 -2.68,-0.71 -4.66,-1.31 -5.86,-1.78l-0.22 -0.09 -1.9 0 0 10.08 0.91 0.26c2.29,0.64 4.64,1.14 7,1.49 2.36,0.35 4.82,0.53 7.3,0.53 7.65,0 13.44,-1.97 17.2,-5.84 3.75,-3.87 5.65,-9.92 5.65,-18l0 -41.9 -10.22 0z"/>
      </g>
      <g>
       <g>
        <path class="fil0" d="M61.27 136.35c-0.27,0 -0.54,-0.02 -0.81,-0.05l-0.15 -0.02c-0.99,-0.15 -1.85,-0.48 -2.55,-0.74l-0.37 -0.14c-4.36,-1.59 -9.66,-5.18 -15.27,-8.99 -4.53,-3.07 -9.2,-6.24 -12.69,-7.78l-7.5 1.94c-3.32,0.87 -6.58,0.37 -9.41,-1.45 -5.2,-3.32 -8.15,-10.53 -9.17,-16.18l-0.03 -0.16c-1.06,-8 -1.88,-23.01 -2.48,-33.98 -0.16,-2.84 -0.3,-5.41 -0.42,-7.48l-0.01 -0.17 -0.41 -34.45 0.03 -0.79c0.08,-2.45 0.19,-4.92 0.32,-7.34l0.01 -0.16c0.55,-5.49 2.98,-12.64 8.14,-16.23 3.05,-2.12 6.68,-2.71 10.49,-1.71l64.77 16.79c7.67,1.85 14.82,9.41 13.25,17.73 -2.59,14.14 -3.81,39.75 -3.85,53.42 -0.01,7.7 -6.21,15.45 -13.81,17.28l-17.29 4.48c0.73,2.13 1.69,4.76 2.59,7.2 1.52,4.16 2.96,8.09 3.51,10.19 0.59,2.24 0.06,4.54 -1.47,6.3 -1.37,1.59 -3.36,2.49 -5.42,2.49zm-31.42 -24.87l0 0 1.01 0.38c4.33,1.61 9.56,5.16 15.09,8.91 5.02,3.41 10.21,6.93 13.78,8.23l0.43 0.16c0.42,0.16 0.82,0.31 1.12,0.37 0.11,0 0.21,-0.07 0.26,-0.13 0.05,-0.05 0.05,-0.07 0.03,-0.11 -0.46,-1.78 -1.92,-5.75 -3.32,-9.58 -1.66,-4.52 -3.23,-8.79 -3.81,-11.1l-0.83 -3.28 24.08 -6.25c4.63,-1.11 8.65,-6.1 8.66,-10.69 0.04,-13.92 1.29,-40.07 3.96,-54.64 0.82,-4.35 -3.64,-8.79 -8.17,-9.88l-0.06 -0.01 -64.81 -16.79c-1.91,-0.51 -3.46,-0.28 -4.88,0.71 -3.04,2.11 -4.82,7.15 -5.24,11.24 -0.13,2.35 -0.23,4.74 -0.31,7.12l-0.02 0.63 0.41 34.22c0.12,2.07 0.26,4.62 0.41,7.44 0.59,10.82 1.4,25.61 2.42,33.37 0.78,4.21 3.02,9.6 6.13,11.58 1.25,0.8 2.53,0.99 4.03,0.6l9.63 -2.5z"/>
       </g>
       <g>
        <path class="fil0" d="M42.13 76.52c0,5.07 -4.11,9.17 -9.18,9.17 -5.07,0 -9.17,-4.1 -9.17,-9.17 0,-5.07 4.1,-9.18 9.17,-9.18 5.07,0 9.18,4.11 9.18,9.18z"/>
        <path class="fil0" d="M72.98 74.36c0,5.07 -4.11,9.18 -9.18,9.18 -5.07,0 -9.18,-4.11 -9.18,-9.18 0,-5.07 4.11,-9.18 9.18,-9.18 5.07,0 9.18,4.11 9.18,9.18z"/>
       </g>
      </g>
     </g>
    </g>
   </g>
   <g>
    <g>
     <g>
      <polygon class="fil0" points="129.82,164.71 129.82,136.33 148.9,136.33 148.9,142.1 136.43,142.1 136.43,147.47 148.22,147.47 148.22,152.96 136.43,152.96 136.43,158.86 149.62,158.86 149.62,164.71 "/>
      <polygon class="fil0" points="175.44,164.71 164.01,146.15 163.89,146.15 164.05,164.71 157.4,164.71 157.4,136.33 165.21,136.33 176.6,154.85 176.72,154.85 176.56,136.33 183.21,136.33 183.21,164.71 "/>
      <path class="fil0" d="M212.66 164.75c-1.86,0.45 -3.89,0.68 -6.08,0.68 -2.27,0 -4.36,-0.36 -6.27,-1.08 -1.91,-0.72 -3.55,-1.74 -4.93,-3.05 -1.38,-1.31 -2.45,-2.88 -3.23,-4.71 -0.77,-1.83 -1.16,-3.87 -1.16,-6.11 0,-2.27 0.39,-4.33 1.18,-6.18 0.79,-1.84 1.88,-3.41 3.27,-4.71 1.39,-1.29 3.02,-2.29 4.89,-2.98 1.87,-0.7 3.89,-1.05 6.05,-1.05 2.25,0 4.33,0.35 6.26,1.03 1.92,0.68 3.48,1.59 4.69,2.74l-4.33 4.93c-0.67,-0.77 -1.55,-1.41 -2.65,-1.9 -1.09,-0.49 -2.34,-0.74 -3.73,-0.74 -1.2,0 -2.31,0.22 -3.32,0.66 -1.02,0.44 -1.9,1.06 -2.65,1.84 -0.75,0.79 -1.33,1.73 -1.74,2.81 -0.42,1.08 -0.62,2.26 -0.62,3.55 0,1.31 0.18,2.51 0.56,3.61 0.37,1.09 0.93,2.03 1.66,2.82 0.74,0.79 1.64,1.4 2.73,1.85 1.08,0.44 2.31,0.66 3.7,0.66 0.81,0 1.57,-0.06 2.29,-0.18 0.72,-0.12 1.39,-0.32 2,-0.58l0 -5.18 -5.41 0 0 -5.53 11.71 0 0 15.03c-1.39,0.73 -3.02,1.31 -4.87,1.77z"/>
      <polygon class="fil0" points="226.39,164.71 226.39,136.33 233.28,136.33 233.28,158.74 244.27,158.74 244.27,164.71 "/>
      <polygon class="fil0" points="250.72,164.71 250.72,136.33 257.61,136.33 257.61,164.71 "/>
      <path class="fil0" d="M281.71 143.7c-0.59,-0.75 -1.36,-1.34 -2.31,-1.78 -0.95,-0.44 -1.86,-0.66 -2.74,-0.66 -0.46,0 -0.92,0.04 -1.39,0.12 -0.46,0.08 -0.89,0.23 -1.26,0.46 -0.37,0.23 -0.69,0.52 -0.94,0.88 -0.26,0.36 -0.38,0.82 -0.38,1.38 0,0.48 0.1,0.89 0.3,1.21 0.2,0.32 0.49,0.6 0.88,0.84 0.39,0.24 0.85,0.46 1.38,0.66 0.54,0.2 1.14,0.41 1.81,0.62 0.96,0.32 1.96,0.68 3,1.06 1.05,0.39 1.99,0.91 2.85,1.55 0.85,0.64 1.56,1.43 2.12,2.38 0.57,0.95 0.85,2.13 0.85,3.55 0,1.63 -0.3,3.04 -0.91,4.23 -0.6,1.19 -1.41,2.17 -2.42,2.95 -1.02,0.77 -2.18,1.35 -3.49,1.72 -1.31,0.37 -2.66,0.56 -4.05,0.56 -2.03,0 -3.99,-0.35 -5.89,-1.06 -1.9,-0.71 -3.48,-1.72 -4.73,-3.03l4.49 -4.57c0.69,0.86 1.61,1.57 2.74,2.15 1.14,0.57 2.27,0.86 3.39,0.86 0.51,0 1,-0.06 1.49,-0.16 0.48,-0.11 0.9,-0.28 1.26,-0.52 0.36,-0.24 0.65,-0.56 0.86,-0.97 0.21,-0.4 0.32,-0.88 0.32,-1.44 0,-0.53 -0.13,-0.99 -0.4,-1.36 -0.27,-0.38 -0.65,-0.72 -1.14,-1.02 -0.5,-0.31 -1.11,-0.59 -1.85,-0.85 -0.73,-0.25 -1.57,-0.52 -2.5,-0.82 -0.91,-0.29 -1.8,-0.64 -2.67,-1.04 -0.87,-0.4 -1.64,-0.92 -2.32,-1.54 -0.68,-0.63 -1.23,-1.39 -1.65,-2.29 -0.41,-0.89 -0.62,-1.98 -0.62,-3.27 0,-1.57 0.32,-2.92 0.96,-4.04 0.65,-1.13 1.49,-2.05 2.53,-2.77 1.04,-0.72 2.22,-1.25 3.53,-1.58 1.31,-0.34 2.63,-0.51 3.97,-0.51 1.6,0 3.24,0.3 4.91,0.89 1.67,0.58 3.13,1.45 4.39,2.6l-4.37 4.61z"/>
      <polygon class="fil0" points="311.57,164.71 311.57,152.84 300.51,152.84 300.51,164.71 293.65,164.71 293.65,136.33 300.51,136.33 300.51,147.07 311.57,147.07 311.57,136.33 318.43,136.33 318.43,164.71 "/>
     </g>
    </g>
    <g>
     <path class="fil0" d="M348.03 153.99l-1.51 -3.83 -7.55 0 -1.43 3.83 -5.12 0 8.18 -19.5 4.57 0 8.1 19.5 -5.24 0zm-5.23 -14.29l0 0 -2.48 6.69 4.91 0 -2.43 -6.69z"/>
     <polygon class="fil0" points="357.12,153.99 357.12,134.49 370.23,134.49 370.23,138.46 361.66,138.46 361.66,142.15 369.76,142.15 369.76,145.92 361.66,145.92 361.66,149.97 370.72,149.97 370.72,153.99 "/>
    </g>
   </g>
  </g>
 </g>
</svg>
