<svg version="1.2" xmlns="http://www.w3.org/2000/svg" viewBox="0 0 350 135" width="350" height="135">
	<title>fr-logo-svg</title>
	<style>
		.s0 { fill: #0e94ad } 
	</style>
	<g id="__x003c_Ebene_x003e_">
		<g id="_2620451347040">
			<g id="Layer">
				<g id="Layer">
					<path id="Layer" fill-rule="evenodd" class="s0" d="m100.4 28.4h8.2v53.7h-8.2zm24.1 14.6h8.3v39.2h-8.3zm149.9 4.6c3.2 3.7 4.9 8.7 4.9 15 0 6.3-1.7 11.4-4.9 15-3.3 3.8-7.7 5.6-13.2 5.6-5.5 0-9.9-1.8-13.2-5.6-3.3-3.6-4.9-8.7-4.9-15 0-6.3 1.6-11.3 4.9-15 3.3-3.7 7.7-5.6 13.2-5.6 5.5 0 9.9 1.9 13.2 5.6zm-3.6 15c0-4.5-0.8-7.9-2.6-10.1-1.6-2.1-4-3.1-7-3.1-3.1 0-5.4 1-7.1 3.1-1.7 2.2-2.5 5.6-2.5 10.1q0 6.7 2.6 10c1.6 2.2 3.9 3.2 7 3.2 3 0 5.3-1 7-3.2 1.7-2.2 2.6-5.5 2.6-10zm70.7-19.6h8.3v39.2h-8.3zm-184.7 39.2h-8.2v-39.2h8.2zm24.7-25.1v25.1h-8.2v-22.2q0-2.4-0.3-4.6-0.3-2.1-0.9-3.1c-0.5-0.8-1.1-1.4-2-1.7-0.9-0.4-2.1-0.6-3.6-0.6q-1.2 0-2.3 0.3v-7.8q2-0.5 4-0.5c4.3 0 7.7 1.3 9.9 4 2.3 2.6 3.4 6.3 3.4 11.1zm119.5-3.1v28.2h-8.3v-39.2h8.3v3.1c0 0 0 7.9 0 7.9zm24.7 3.1v25.1h-8.3v-22.2q0-2.4-0.2-4.6-0.3-2.1-1-3.1c-0.5-0.8-1.1-1.4-1.9-1.7q-1.4-0.6-3.7-0.6-1.1 0-2.3 0.3v-7.8q2-0.5 4.1-0.5c4.3 0 7.6 1.3 9.9 4 2.3 2.6 3.4 6.3 3.4 11.1zm-96-14.1v34c0 6.5-1.6 11.4-4.6 14.6-3 3.1-7.7 4.7-13.9 4.7q-3 0-5.9-0.4c-1.9-0.3-3.8-0.7-5.6-1.3l-0.8-0.1v-8.2h1.6l0.2 0.1c0.9 0.3 2.5 0.8 4.7 1.4 2.1 0.5 4.3 0.8 6.3 0.8 2.1 0 3.7-0.2 5-0.7 1.2-0.4 2.2-1 2.8-1.8q1-1.1 1.4-2.7 0.5-1.7 0.5-3.9v-1.3q-2 1.4-4 2.3-2.7 1.2-6.9 1.2c-4.7 0-8.5-1.8-11.3-5.2-2.7-3.4-4.1-8.2-4.1-14.2 0-3.3 0.5-6.2 1.4-8.7q1.4-3.6 3.9-6.3c1.5-1.7 3.3-3 5.5-3.9 2.2-0.9 4.4-1.4 6.6-1.4q0.8 0 1.6 0v7.7q-0.3-0.1-0.6-0.1c-3.1 0-5.5 1.1-7.3 3.2-1.8 2.1-2.7 5.2-2.7 9.3 0 4 0.7 7 2 9 1.3 1.8 3.4 2.7 6.5 2.7 1.6 0 3.4-0.3 5-1q2.4-0.8 4.4-2.3v-27.5z"/>
				</g>
				<g id="Layer">
					<g id="Layer">
						<path id="Layer" fill-rule="evenodd" class="s0" d="m51.6 110.5q-0.4 0-0.7-0.1h-0.1c-0.8-0.1-1.5-0.4-2.1-0.6l-0.3-0.1c-3.5-1.3-7.7-4.2-12.3-7.3-3.6-2.5-7.4-5-10.2-6.3l-6.1 1.6c-2.6 0.7-5.3 0.3-7.6-1.2-4.2-2.7-6.5-8.5-7.4-13.1v-0.1c-0.9-6.5-1.5-18.7-2-27.5-0.1-2.4-0.2-4.4-0.3-6.1v-0.2l-0.4-27.9 0.1-0.6q0.1-3 0.2-6v-0.1c0.5-4.4 2.4-10.2 6.6-13.1 2.5-1.8 5.4-2.2 8.5-1.4l52.2 13.6c6.2 1.5 12 7.6 10.7 14.4-2.1 11.4-3.1 32.2-3.1 43.2 0 6.3-5 12.6-11.1 14l-14 3.7c0.6 1.7 1.4 3.8 2.1 5.8 1.2 3.4 2.4 6.6 2.8 8.3 0.5 1.8 0.1 3.6-1.1 5.1-1.2 1.3-2.8 2-4.4 2zm-25.4-20.2l0.8 0.3c3.5 1.3 7.7 4.2 12.2 7.3 4.1 2.7 8.2 5.6 11.1 6.6l0.4 0.2c0.3 0.1 0.6 0.2 0.9 0.3 0.1 0 0.2-0.1 0.2-0.1q0.1-0.1 0-0.1c-0.4-1.5-1.5-4.7-2.7-7.8-1.3-3.7-2.6-7.1-3-9l-0.7-2.7 19.4-5c3.8-0.9 7-5 7-8.7 0-11.3 1.1-32.4 3.2-44.3 0.7-3.5-2.9-7.1-6.6-7.9v-0.1l-52.3-13.6c-1.6-0.4-2.8-0.2-4 0.6-2.4 1.7-3.9 5.8-4.2 9.1q-0.1 2.9-0.3 5.8v0.5l0.4 27.7c0.1 1.7 0.2 3.8 0.3 6 0.5 8.8 1.1 20.8 2 27.1 0.6 3.4 2.4 7.8 4.9 9.4 1 0.6 2 0.8 3.2 0.5z"/>
					</g>
					<g id="Layer">
						<path id="Layer" class="s0" d="m28.7 69.4c-4.1 0-7.4-3.3-7.4-7.4 0-4.1 3.3-7.4 7.4-7.4 4.1 0 7.4 3.3 7.4 7.4 0 4.1-3.3 7.4-7.4 7.4z"/>
						<path id="Layer" class="s0" d="m53.6 67.7c-4.1 0-7.4-3.3-7.4-7.4 0-4.2 3.3-7.5 7.4-7.5 4.1 0 7.4 3.3 7.4 7.5 0 4.1-3.3 7.4-7.4 7.4z"/>
					</g>
				</g>
			</g>
			<g id="Layer">
				<path id="Layer" class="s0" d="m105.9 115.1v4.8h8.9v4.6h-8.9v9h-5.5v-23.1h15.1v4.7z"/>
				<path id="Layer" fill-rule="evenodd" class="s0" d="m134 133.5l-4.9-9.2h-1.9v9.2h-5.5v-23.1h8.8q1.7 0 3.2 0.3 1.6 0.4 2.9 1.2 1.2 0.8 2 2.1 0.7 1.3 0.7 3.3 0 2.4-1.3 4-1.2 1.6-3.5 2.3l6.1 9.9zm-0.3-16.1q0-0.8-0.3-1.3-0.3-0.5-0.9-0.8-0.5-0.2-1.2-0.3-0.7-0.1-1.3-0.1h-3v5.3h2.7q0.7 0 1.4-0.1 0.7-0.1 1.3-0.4 0.6-0.3 1-0.8 0.3-0.6 0.3-1.5z"/>
				<path id="Layer" class="s0" d="m145.9 133.5v-23.1h15.5v4.6h-10.1v4.4h9.5v4.5h-9.5v4.8h10.7v4.8z"/>
				<path id="Layer" class="s0" d="m182.9 133.5l-9.3-15.2h-0.1l0.2 15.2h-5.4v-23.1h6.3l9.2 15h0.1l-0.1-15h5.4v23.1z"/>
				<path id="Layer" class="s0" d="m213 133.1q-2.2 1-5.2 1-2.6 0-4.9-0.9-2.2-0.9-3.9-2.5-1.6-1.6-2.6-3.9-0.9-2.2-0.9-4.9 0-2.8 0.9-5 1-2.3 2.7-3.9 1.7-1.6 3.9-2.4 2.3-0.9 5-0.9 2.4 0 4.7 0.9 2.4 0.9 3.9 2.5l-3.8 3.8q-0.8-1.1-2.1-1.6-1.2-0.5-2.6-0.5-1.4 0-2.6 0.5-1.3 0.6-2.1 1.5-0.9 1-1.4 2.3-0.5 1.2-0.5 2.8 0 1.5 0.5 2.8 0.5 1.4 1.3 2.3 0.9 0.9 2.1 1.4 1.2 0.6 2.6 0.6 1.7 0 2.9-0.7 1.3-0.6 2-1.7l3.9 3.7q-1.6 1.7-3.8 2.8z"/>
				<path id="Layer" class="s0" d="m236.3 133.5v-9.7h-9v9.7h-5.5v-23.1h5.5v8.7h9v-8.7h5.6v23.1z"/>
			</g>
		</g>
	</g>
</svg>