<svg width="49" height="48" viewBox="0 0 49 48" fill="none" xmlns="http://www.w3.org/2000/svg">
<path d="M32.3822 7.37947C31.8569 6.85463 31.0051 6.85463 30.4797 7.37947L2.65929 35.1999C2.45747 35.4017 2.32525 35.6626 2.28219 35.9445L0.0296349 46.3727C-0.0655172 46.8189 0.0717017 47.2832 0.394723 47.6057C0.717234 47.9282 1.18098 48.0654 1.62719 47.9703L11.8129 45.7892C12.177 45.7993 12.5285 45.656 12.7825 45.3946L40.6028 17.5742C41.1277 17.0484 41.1277 16.1971 40.6028 15.6717L32.3822 7.37947Z" fill="white"/>
<path d="M47.6385 8.62701L39.3914 0.379354C38.858 -0.126451 38.0216 -0.126451 37.4883 0.379354L33.6832 4.18446C33.1583 4.71031 33.1583 5.56164 33.6832 6.08702L41.9308 14.3347C42.4562 14.8595 43.3075 14.8595 43.8334 14.3347L47.6385 10.5296C48.1633 10.0037 48.1633 9.15239 47.6385 8.62701Z" fill="white"/>
</svg>
