<svg width="14" height="14" viewBox="0 0 14 14" fill="none" xmlns="http://www.w3.org/2000/svg">
<path d="M9.45016 10.2163L10.2002 9.46634L7.55016 6.79967V3.44967H6.55016V7.19967L9.45016 10.2163ZM7.00016 13.6663C6.08905 13.6663 5.22794 13.4913 4.41683 13.1413C3.60572 12.7913 2.89738 12.3136 2.29183 11.708C1.68627 11.1025 1.2085 10.3941 0.858496 9.58301C0.508496 8.7719 0.333496 7.91079 0.333496 6.99967C0.333496 6.08856 0.508496 5.22745 0.858496 4.41634C1.2085 3.60523 1.68627 2.8969 2.29183 2.29134C2.89738 1.68579 3.60572 1.20801 4.41683 0.858008C5.22794 0.508008 6.08905 0.333008 7.00016 0.333008C7.91127 0.333008 8.77238 0.508008 9.5835 0.858008C10.3946 1.20801 11.1029 1.68579 11.7085 2.29134C12.3141 2.8969 12.7918 3.60523 13.1418 4.41634C13.4918 5.22745 13.6668 6.08856 13.6668 6.99967C13.6668 7.91079 13.4918 8.7719 13.1418 9.58301C12.7918 10.3941 12.3141 11.1025 11.7085 11.708C11.1029 12.3136 10.3946 12.7913 9.5835 13.1413C8.77238 13.4913 7.91127 13.6663 7.00016 13.6663ZM7.00016 12.6663C8.55572 12.6663 9.88905 12.1108 11.0002 10.9997C12.1113 9.88856 12.6668 8.55523 12.6668 6.99967C12.6668 5.44412 12.1113 4.11079 11.0002 2.99967C9.88905 1.88856 8.55572 1.33301 7.00016 1.33301C5.44461 1.33301 4.11127 1.88856 3.00016 2.99967C1.88905 4.11079 1.3335 5.44412 1.3335 6.99967C1.3335 8.55523 1.88905 9.88856 3.00016 10.9997C4.11127 12.1108 5.44461 12.6663 7.00016 12.6663Z" fill="#454545"/>
</svg>
