<svg xmlns="http://www.w3.org/2000/svg">
	<symbol width="30" height="30" viewBox="0 0 30 30" xmlns="http://www.w3.org/2000/svg" id="dashboard">
		<g clip-path="url(#clip0_7_698)">
		<path d="M30 1.40002H16.2198V16.9275H30V1.40002ZM0 1.40002V10.8286H13.7802L13.7805 1.40002H0ZM13.7802 13.1033H0V28.6308H13.7802V13.1033ZM30 19.2022H16.2198V28.6308H30V19.2022Z" fill="#A9AFBB"/>
		</g>
		<defs>
		<clipPath id="clip0_7_698">
		<rect width="30" height="30" fill="white"/>
		</clipPath>
		</defs>
	</symbol>
	<symbol width="30" height="30" viewBox="0 0 30 30" xmlns="http://www.w3.org/2000/svg" id="dashboard-t">
		<g clip-path="url(#clip0_7_698)">
		<path d="M30 1.40002H16.2198V16.9275H30V1.40002ZM0 1.40002V10.8286H13.7802L13.7805 1.40002H0ZM13.7802 13.1033H0V28.6308H13.7802V13.1033ZM30 19.2022H16.2198V28.6308H30V19.2022Z" fill="#555555"/>
		</g>
		<defs>
		<clipPath id="clip0_7_698">
		<rect width="30" height="30" fill="white"/>
		</clipPath>
		</defs>
	</symbol>
	<symbol width="30" height="30" viewBox="0 0 30 30" xmlns="http://www.w3.org/2000/svg" id="network">
		<g clip-path="url(#clip0_6_53)">
		<path d="M20.489 4.18543C20.8717 4.87936 21.2112 5.63032 21.509 6.42646C19.6649 6.85093 17.6872 7.09322 15.649 7.13609V0C17.4468 0.288215 19.1451 1.74804 20.489 4.18543ZM19.8926 0.766618C22.2933 1.59566 24.4203 3.01568 26.0994 4.85251C25.1341 5.3145 24.0903 5.71104 22.9864 6.03834C22.6508 5.11781 22.2611 4.25049 21.8206 3.45093C21.24 2.39876 20.5924 1.50082 19.8926 0.766618ZM21.9863 7.87253C22.5509 9.82195 22.8781 11.9841 22.9378 14.24L15.649 14.2396V8.65564C17.851 8.61085 19.9902 8.34332 21.9863 7.87253ZM22.9378 15.7607C22.8781 18.0156 22.5512 20.177 21.9871 22.126C19.9914 21.6552 17.8506 21.388 15.649 21.344V15.7608L22.9378 15.7607ZM21.5078 23.5755C21.2108 24.3712 20.8709 25.1214 20.4886 25.8149C19.1451 28.2523 17.4468 29.7121 15.6486 30V22.8647C17.6872 22.9079 19.6637 23.1506 21.5078 23.5755ZM21.8205 26.5495C22.2611 25.7504 22.65 24.8842 22.9857 23.9636C24.09 24.2909 25.1341 24.6859 26.0994 25.1482C24.4202 26.9847 22.2932 28.4047 19.8926 29.2338C20.5922 28.4996 21.2399 27.6017 21.8205 26.5494V26.5495ZM23.4557 22.5161C24.054 20.4377 24.3981 18.1442 24.4581 15.7605H30.0246C29.8718 18.8133 28.8048 21.6296 27.093 23.9411C25.9739 23.3792 24.7532 22.9022 23.4557 22.5161ZM24.4585 14.2397C24.398 11.8551 24.0539 9.56052 23.4553 7.48137C24.7521 7.09479 25.9727 6.61863 27.0919 6.05715C28.8046 8.36863 29.8722 11.1853 30.025 14.2397H24.4585ZM6.52412 7.4846C5.92625 9.56297 5.58216 11.8564 5.52202 14.2402H-0.0444336C0.107904 11.187 1.175 8.37107 2.8867 6.0596C4.00629 6.6211 5.22728 7.09844 6.52402 7.4846H6.52412ZM3.88008 4.8532C5.55965 3.01637 7.68662 1.59597 10.0877 0.766913C9.38798 1.50066 8.73997 2.39896 8.15969 3.45122C7.71876 4.25119 7.32911 5.11855 6.99347 6.03902C5.88957 5.71215 4.84583 5.31523 3.88018 4.8532H3.88008ZM5.52212 15.7609C5.58221 18.1443 5.92631 20.4382 6.52422 22.5166C5.22748 22.9028 4.00648 23.3797 2.8869 23.9416C1.17519 21.6305 0.10813 18.8142 -0.0442375 15.7609H5.52212ZM6.99347 23.9618C7.32953 24.8824 7.71879 25.7497 8.15969 26.5496C8.73957 27.6018 9.38755 28.5001 10.0877 29.2339C7.68662 28.4049 5.55926 26.9845 3.88008 25.1477C4.84578 24.6853 5.88957 24.2888 6.99337 23.9618H6.99347ZM9.49171 25.8155C9.10896 25.1212 8.76907 24.3699 8.47129 23.5737C10.2541 23.1634 12.1618 22.923 14.1284 22.8687V29.9626C12.406 29.6013 10.7846 28.1606 9.49171 25.8155ZM7.99322 22.1258C7.42904 20.1768 7.10216 18.0158 7.04245 15.7606H14.1284V21.3473C11.9984 21.4043 9.92804 21.6695 7.99322 22.1258ZM7.04284 14.2399C7.10255 11.9851 7.42942 9.82371 7.9936 7.87507C9.92803 8.33132 11.9984 8.59657 14.1288 8.65322V14.24L7.04284 14.2399ZM8.47127 6.42714C8.76868 5.63063 9.10856 4.87966 9.49169 4.18572C10.7846 1.84015 12.406 0.399468 14.1288 0.0381952V7.13215C12.1618 7.0778 10.2541 6.83784 8.47127 6.42714Z" fill="#A9AFBB"/>
		</g>
		<defs>
		<clipPath id="clip0_6_53">
		<rect width="30" height="30" fill="white"/>
		</clipPath>
		</defs>
	</symbol>
	<symbol width="30" height="30" viewBox="0 0 30 30" xmlns="http://www.w3.org/2000/svg" id="profile">
		<g clip-path="url(#clip0_7_665)">
		<path fill-rule="evenodd" clip-rule="evenodd" d="M15.0027 0C17.1112 0 19.0211 0.854834 20.4025 2.23712C21.7848 3.61941 22.6396 5.52844 22.6396 7.63688C22.6396 9.74533 21.7848 11.6552 20.4025 13.0366C19.0202 14.4189 17.1112 15.2738 15.0027 15.2738C12.8943 15.2738 10.9844 14.4189 9.60296 13.0366C8.22067 11.6544 7.36584 9.74533 7.36584 7.63688C7.36584 5.52844 8.22067 3.61935 9.60296 2.23712C10.9852 0.854889 12.8943 0 15.0027 0ZM2.21112 29.2969C2.21112 25.7647 3.64319 22.5671 5.95746 20.2518C8.27276 17.9365 11.4705 16.5054 15.0026 16.5054C18.5347 16.5054 21.7324 17.9375 24.0477 20.2518C26.363 22.5671 27.794 25.7648 27.794 29.2969C27.794 29.6848 27.4788 30 27.0909 30H2.91534C2.5266 30 2.21222 29.6848 2.21222 29.2969H2.21112Z" fill="#A9AFBB"/>
		</g>
		<defs>
		<clipPath id="clip0_7_665">
		<rect width="30" height="30" fill="white"/>
		</clipPath>
		</defs>
	</symbol>
	<symbol width="30" height="30" viewBox="0 0 30 30" xmlns="http://www.w3.org/2000/svg" id="profile-t">
		<g clip-path="url(#clip0_7_665)">
		<path fill-rule="evenodd" clip-rule="evenodd" d="M15.0027 0C17.1112 0 19.0211 0.854834 20.4025 2.23712C21.7848 3.61941 22.6396 5.52844 22.6396 7.63688C22.6396 9.74533 21.7848 11.6552 20.4025 13.0366C19.0202 14.4189 17.1112 15.2738 15.0027 15.2738C12.8943 15.2738 10.9844 14.4189 9.60296 13.0366C8.22067 11.6544 7.36584 9.74533 7.36584 7.63688C7.36584 5.52844 8.22067 3.61935 9.60296 2.23712C10.9852 0.854889 12.8943 0 15.0027 0ZM2.21112 29.2969C2.21112 25.7647 3.64319 22.5671 5.95746 20.2518C8.27276 17.9365 11.4705 16.5054 15.0026 16.5054C18.5347 16.5054 21.7324 17.9375 24.0477 20.2518C26.363 22.5671 27.794 25.7648 27.794 29.2969C27.794 29.6848 27.4788 30 27.0909 30H2.91534C2.5266 30 2.21222 29.6848 2.21222 29.2969H2.21112Z" fill="#555555"/>
		</g>
		<defs>
		<clipPath id="clip0_7_665">
		<rect width="30" height="30" fill="white"/>
		</clipPath>
		</defs>
	</symbol>
	<symbol width="30" height="30" viewBox="0 0 30 30" xmlns="http://www.w3.org/2000/svg" id="subscribe">
		<g clip-path="url(#clip0_6_8)">
		<path d="M16.239 28.7553C12.7458 28.7553 9.35847 27.3792 6.81798 25.0505C6.39456 24.627 6.39456 23.9919 6.71212 23.5685C7.13554 23.1451 7.77066 23.1451 8.19408 23.4627C12.8516 27.9085 20.2614 27.591 24.6014 22.9334C28.9414 18.2758 28.9414 10.866 24.178 6.42018C19.4146 1.97431 12.1107 2.29188 7.77066 7.0553C5.75944 9.17238 4.59504 12.0304 4.59504 14.9943C4.59504 15.6295 4.17163 16.0529 3.53651 16.0529C2.90138 16.0529 2.47797 15.6295 2.47797 14.9943C2.47797 7.37286 8.61749 1.23334 16.239 1.23334C23.8605 1.23334 30 7.37286 30 14.9943C30 22.6158 23.8605 28.7553 16.239 28.7553Z" fill="#A9AFBB"/>
		<path d="M21.2141 20.8163L16.0273 17.8524C15.6039 17.6407 15.2863 17.1114 15.2863 16.688V8.00798C15.2863 7.47871 15.7097 7.0553 16.239 7.0553C16.7683 7.0553 17.1917 7.47871 17.1917 8.00798V15.5236C17.1917 16.0529 17.5092 16.4763 17.9327 16.688L22.1668 19.1226C22.5902 19.3343 22.6961 19.9695 22.4844 20.3929C22.1668 20.9222 21.6375 21.028 21.2141 20.8163Z" fill="#A9AFBB"/>
		<path d="M3.85409 18.9109C3.64238 19.1227 3.32482 19.1227 3.11311 18.9109L1.41945 17.1114L0.149205 15.8412C-0.168356 15.5236 0.0433514 14.9944 0.572621 14.9944H6.50044C6.92385 14.9944 7.13556 15.5236 6.818 15.8412L5.65361 17.1114L3.85409 18.9109Z" fill="#A9AFBB"/>
		</g>
		<defs>
		<clipPath id="clip0_6_8">
		<rect width="30" height="30" fill="white"/>
		</clipPath>
		</defs>
	</symbol>
	<symbol width="30" height="30" viewBox="0 0 30 30" xmlns="http://www.w3.org/2000/svg" id="question">
		<g clip-path="url(#clip0_7_805)">
		<path d="M9.36613 0.546387C4.4983 0.546387 0.546448 4.49824 0.546448 9.36607V20.6553C0.546448 25.5231 4.4983 29.475 9.36613 29.475H20.6553C25.5232 29.475 29.475 25.5231 29.475 20.6553V9.36607C29.4753 4.49805 25.5234 0.546387 20.6553 0.546387H9.36613ZM9.36613 2.66324H20.6553C24.3869 2.66324 27.3583 5.63447 27.3583 9.3662V20.6554C27.3583 24.387 24.3871 27.3584 20.6553 27.3584H9.36613C5.63453 27.3584 2.66317 24.3871 2.66317 20.6554V9.3662C2.66317 5.63459 5.6344 2.66324 9.36613 2.66324ZM15.0109 5.13269C12.0581 5.13269 9.64547 7.05582 9.04648 9.45446V9.45421C8.96503 9.73057 8.99973 10.0278 9.14221 10.2781C9.28494 10.5281 9.52315 10.7095 9.80243 10.7799C10.0815 10.8505 10.3773 10.8042 10.6216 10.6519C10.866 10.4996 11.0375 10.2542 11.0971 9.97247C11.4187 8.68473 13.0198 7.24927 15.0108 7.24927C15.9917 7.24927 17.0191 7.60954 17.7448 8.19745C18.4707 8.78534 18.8913 9.54257 18.8913 10.4245C18.8913 11.5829 18.6553 12.1029 18.3401 12.5081C18.0248 12.9134 17.5208 13.2287 16.8628 13.6987C16.2048 14.1687 15.4232 14.8179 14.8562 15.8706C14.2897 16.9231 13.9523 18.3327 13.9523 20.3024C13.9523 20.6806 14.1541 21.0301 14.4817 21.2191C14.809 21.4083 15.2126 21.4083 15.5398 21.2191C15.8674 21.0301 16.0692 20.6806 16.0692 20.3024C16.0692 18.5678 16.3605 17.5408 16.7195 16.8737C17.0786 16.2065 17.5211 15.8413 18.0976 15.4294C18.6742 15.0175 19.4053 14.5939 20.0158 13.8087C20.6266 13.0234 21.0081 11.9119 21.0081 10.424C21.0081 8.8365 20.193 7.46579 19.0677 6.55428C17.9423 5.64276 16.4961 5.13216 15.0107 5.13216L15.0109 5.13269ZM15.0217 22.0665C14.2416 22.0665 13.5996 22.6982 13.5996 23.4775C13.5996 24.2569 14.2418 24.8885 15.0217 24.8885C15.8015 24.8885 16.4327 24.2569 16.4327 23.4775C16.4327 22.6982 15.8015 22.0665 15.0217 22.0665Z" fill="#A9AFBB"/>
		</g>
		<defs>
		<clipPath id="clip0_7_805">
		<rect width="30" height="30" fill="white"/>
		</clipPath>
		</defs>
	</symbol>
	<symbol width="30" height="30" viewBox="0 0 30 30" xmlns="http://www.w3.org/2000/svg" id="sign_out">
		<g clip-path="url(#clip0_7_441)">
		<path d="M30 14.9888C30.0025 15.3918 29.8412 15.7786 29.5533 16.0608L23.3747 22.0161C23.095 22.2858 22.7209 22.4353 22.3326 22.4331C22.1332 22.4294 21.9365 22.389 21.7518 22.3139C21.4826 22.2 21.2531 22.0094 21.0915 21.7656C20.93 21.5221 20.8438 21.2364 20.8435 20.9441V19.4553H5.95527C5.56046 19.4553 5.1816 19.2985 4.90245 19.0191C4.62329 18.74 4.46651 18.3613 4.46651 17.9666V12.011C4.46651 11.6162 4.62329 11.2376 4.90245 10.9584C5.1816 10.679 5.56043 10.5222 5.95527 10.5222H20.8435V9.03348C20.8413 8.63916 20.9953 8.26032 21.272 7.97937C21.5487 7.69872 21.9255 7.5392 22.3196 7.53571C22.7137 7.53247 23.0933 7.68551 23.3746 7.96143L29.5533 13.9167C29.8412 14.1989 30.0024 14.5857 29.9999 14.9888L30 14.9888ZM11.9105 23.9218C11.5157 23.9218 11.1371 24.0786 10.8579 24.358C10.5785 24.6372 10.4217 25.0158 10.4217 25.4106V26.8994L2.97726 26.8996V3.07762H10.4217V4.56664C10.4217 5.09854 10.7056 5.59005 11.1662 5.856C11.6268 6.12195 12.1944 6.12195 12.655 5.856C13.1156 5.59005 13.3995 5.09854 13.3995 4.56664V1.58886C13.3995 1.19405 13.2425 0.815191 12.9633 0.536032C12.6842 0.256873 12.3055 0.100098 11.9105 0.100098H1.48876C1.09395 0.100098 0.715094 0.256873 0.435935 0.536032C0.156776 0.815191 0 1.19402 0 1.58886V28.3881C0 28.7829 0.156776 29.1618 0.435935 29.4409C0.715094 29.7201 1.09392 29.8769 1.48876 29.8769H11.9105C12.3055 29.8769 12.6842 29.7201 12.9633 29.4409C13.2425 29.1618 13.3995 28.783 13.3995 28.3881V25.4103C13.3995 25.0155 13.2425 24.6369 12.9633 24.3578C12.6842 24.0784 12.3055 23.9216 11.9105 23.9216L11.9105 23.9218Z" fill="#A9AFBB"/>
		</g>
		<defs>
		<clipPath id="clip0_7_441">
		<rect width="30" height="30" fill="white"/>
		</clipPath>
		</defs>
	</symbol>
	<symbol width="30" height="30" viewBox="0 0 30 30" xmlns="http://www.w3.org/2000/svg" id="sign_out-t">
		<g clip-path="url(#clip0_7_441)">
		<path d="M30 14.9888C30.0025 15.3918 29.8412 15.7786 29.5533 16.0608L23.3747 22.0161C23.095 22.2858 22.7209 22.4353 22.3326 22.4331C22.1332 22.4294 21.9365 22.389 21.7518 22.3139C21.4826 22.2 21.2531 22.0094 21.0915 21.7656C20.93 21.5221 20.8438 21.2364 20.8435 20.9441V19.4553H5.95527C5.56046 19.4553 5.1816 19.2985 4.90245 19.0191C4.62329 18.74 4.46651 18.3613 4.46651 17.9666V12.011C4.46651 11.6162 4.62329 11.2376 4.90245 10.9584C5.1816 10.679 5.56043 10.5222 5.95527 10.5222H20.8435V9.03348C20.8413 8.63916 20.9953 8.26032 21.272 7.97937C21.5487 7.69872 21.9255 7.5392 22.3196 7.53571C22.7137 7.53247 23.0933 7.68551 23.3746 7.96143L29.5533 13.9167C29.8412 14.1989 30.0024 14.5857 29.9999 14.9888L30 14.9888ZM11.9105 23.9218C11.5157 23.9218 11.1371 24.0786 10.8579 24.358C10.5785 24.6372 10.4217 25.0158 10.4217 25.4106V26.8994L2.97726 26.8996V3.07762H10.4217V4.56664C10.4217 5.09854 10.7056 5.59005 11.1662 5.856C11.6268 6.12195 12.1944 6.12195 12.655 5.856C13.1156 5.59005 13.3995 5.09854 13.3995 4.56664V1.58886C13.3995 1.19405 13.2425 0.815191 12.9633 0.536032C12.6842 0.256873 12.3055 0.100098 11.9105 0.100098H1.48876C1.09395 0.100098 0.715094 0.256873 0.435935 0.536032C0.156776 0.815191 0 1.19402 0 1.58886V28.3881C0 28.7829 0.156776 29.1618 0.435935 29.4409C0.715094 29.7201 1.09392 29.8769 1.48876 29.8769H11.9105C12.3055 29.8769 12.6842 29.7201 12.9633 29.4409C13.2425 29.1618 13.3995 28.783 13.3995 28.3881V25.4103C13.3995 25.0155 13.2425 24.6369 12.9633 24.3578C12.6842 24.0784 12.3055 23.9216 11.9105 23.9216L11.9105 23.9218Z" fill="#555555"/>
		</g>
		<defs>
		<clipPath id="clip0_7_441">
		<rect width="30" height="30" fill="white"/>
		</clipPath>
		</defs>
	</symbol>
	<symbol width="22" height="22" viewBox="0 0 22 22" fill="none" xmlns="http://www.w3.org/2000/svg" id="pencil">
		<path d="M14.2682 3.29495C14.0375 3.06444 13.6634 3.06444 13.4326 3.29495L1.2142 15.5134C1.12556 15.602 1.06749 15.7166 1.04858 15.8404L0.05928 20.4204C0.0174902 20.6163 0.0777552 20.8202 0.219623 20.9619C0.361266 21.1035 0.564936 21.1638 0.76091 21.122L5.23437 20.1641C5.39427 20.1685 5.54867 20.1056 5.66018 19.9908L17.8786 7.77238C18.1091 7.54143 18.1091 7.16754 17.8786 6.9368L14.2682 3.29495Z" fill="white"/>
		<path d="M20.9687 3.84284L17.3466 0.220563C17.1124 -0.00158098 16.745 -0.00158098 16.5108 0.220563L14.8396 1.89173C14.6091 2.12267 14.6091 2.49657 14.8396 2.72731L18.4619 6.34959C18.6926 6.58009 19.0665 6.58009 19.2975 6.34959L20.9687 4.67843C21.1992 4.44748 21.1992 4.07359 20.9687 3.84284Z" fill="white"/>
	</symbol>
	<symbol width="22" height="21" viewBox="0 0 22 21" fill="none" xmlns="http://www.w3.org/2000/svg" id="star">
		<path d="M20.98 8.59671L14.8845 13.0075L17.223 20.1588C17.2714 20.308 17.2184 20.4714 17.0916 20.5637C16.9649 20.6561 16.7931 20.6565 16.6658 20.5647L10.5873 16.1293L4.50871 20.5647C4.38161 20.6561 4.21033 20.6556 4.08367 20.5637C3.95716 20.4717 3.90383 20.3089 3.95146 20.1598L6.28999 13.0074L0.194519 8.59659C0.0683175 8.5042 0.0157321 8.34118 0.0639597 8.19243C0.112187 8.04354 0.250262 7.94243 0.406665 7.94138L7.93062 7.95596L10.2428 0.794702C10.292 0.646111 10.4308 0.545898 10.5872 0.545898C10.7436 0.545898 10.8824 0.646111 10.9316 0.794702L13.2441 7.95519L20.7669 7.94151C20.9233 7.94257 21.0615 8.04368 21.1097 8.19257C21.1578 8.34131 21.1052 8.50432 20.9792 8.59673L20.98 8.59671Z" fill="white"/>
	</symbol>
	<symbol width="22" height="21" viewBox="0 0 22 21" fill="none" xmlns="http://www.w3.org/2000/svg" id="headphones">
		<path d="M20.022 12.189V8.80274C19.9743 8.70742 19.9505 8.58815 19.9267 8.49267C19.4258 3.79478 15.4434 0.122314 10.6024 0.122314C5.76145 0.122314 1.77898 3.79469 1.27819 8.49267C1.2544 8.58799 1.23044 8.68347 1.23044 8.77879V12.1888C0.586527 12.1888 0.0618896 12.7135 0.0618896 13.3574V16.5769C0.0618896 17.2208 0.586527 17.7454 1.23044 17.7454H1.30197C1.44503 18.1031 1.77887 18.3416 2.18428 18.3416C2.37507 18.3416 2.56587 18.2701 2.73272 18.1746V19.1762C2.73272 19.9869 3.40044 20.6786 4.23513 20.6786H4.85512C5.66588 20.6786 6.35753 20.0109 6.35753 19.1762L6.3577 10.9727C6.3577 10.162 5.68998 9.47032 4.85528 9.47032H4.2353C3.80613 9.47032 3.42454 9.66112 3.16222 9.94722V9.47032C3.16222 5.3448 6.50074 2.00615 10.6264 2.00615C14.7519 2.00615 18.0905 5.34467 18.0905 9.47032V9.94722C17.8282 9.6611 17.4466 9.47032 17.0175 9.47032H16.3975C15.5867 9.47032 14.8951 10.138 14.8951 10.9727V19.2C14.8951 20.0108 15.5628 20.7024 16.3975 20.7024H17.0175C17.8282 20.7024 18.5199 20.0347 18.5199 19.2V18.1984C18.6629 18.2937 18.8537 18.3654 19.0683 18.3654C19.4737 18.3654 19.8315 18.1031 19.9506 17.7455H19.9744C20.6183 17.7455 21.143 17.2208 21.143 16.5769L21.1428 13.3574C21.1428 12.7373 20.6421 12.2127 20.022 12.1889L20.022 12.189Z" fill="white"/>
	</symbol>
	<symbol width="30" height="30" viewBox="0 0 30 30" fill="none" xmlns="http://www.w3.org/2000/svg" id="loud">
		<path d="M10.7639 3.80908C7.3342 3.80908 4.52547 6.61789 4.52547 10.0475C4.52547 13.4772 7.33427 16.2859 10.7639 16.2859C14.1935 16.2859 17.0023 13.4771 17.0023 10.0475C17.0023 6.61781 14.1935 3.80908 10.7639 3.80908ZM10.7639 17.809C5.87892 17.809 1.90032 21.7846 1.90032 26.6703V28.6743H1.90002C1.90151 29.0275 2.04321 29.3653 2.29364 29.6139C2.54407 29.8626 2.88332 30.0016 3.23627 30.0001H18.2971C18.6488 29.9995 18.986 29.8596 19.2346 29.6112C19.4836 29.3629 19.6241 29.026 19.6256 28.6743V26.6703C19.6256 21.7853 15.6493 17.809 10.7643 17.809L10.7639 17.809Z" fill="#A9AFBB"/>
		<path d="M19.9553 4.35256C19.7001 4.05048 19.3305 3.86843 18.9352 3.8506C18.5402 3.83254 18.1557 3.98013 17.8741 4.25773C17.5924 4.53532 17.4394 4.91799 17.4517 5.31323C17.4641 5.70847 17.6409 6.08064 17.9394 6.34019C19.0144 7.40634 19.619 8.85781 19.619 10.372C19.619 11.8862 19.0144 13.3376 17.9394 14.4038C17.6749 14.6698 17.5266 15.0296 17.5266 15.4046C17.5266 15.7799 17.6749 16.1395 17.9394 16.4057C18.2037 16.6678 18.5607 16.8156 18.9331 16.8173C19.3124 16.8156 19.6753 16.6623 19.941 16.3914C21.5363 14.7943 22.432 12.6294 22.432 10.372C22.432 8.11459 21.5362 5.94968 19.941 4.35256H19.9553Z" fill="#A9AFBB"/>
		<path d="M23.9442 0.335204C23.5765 0.0245711 23.0764 -0.0785757 22.6159 0.0611742C22.1553 0.200687 21.7968 0.564314 21.6638 1.02681C21.5307 1.48931 21.6407 1.9877 21.9566 2.35112C24.0806 4.48013 25.2735 7.36469 25.2735 10.372C25.2735 13.3794 24.0807 16.264 21.9566 18.3929C21.6892 18.6582 21.5383 19.0187 21.5366 19.3952C21.5352 19.7717 21.6833 20.1334 21.9483 20.4007C22.2135 20.6679 22.5738 20.819 22.9503 20.8207C23.3227 20.819 23.6797 20.6712 23.9442 20.4088C26.6056 17.7467 28.1008 14.1365 28.1008 10.3722C28.1008 6.60785 26.6056 2.99744 23.9442 0.335563L23.9442 0.335204Z" fill="#A9AFBB"/>
	</symbol>
	<symbol width="30" height="30" viewBox="0 0 30 30" fill="none" xmlns="http://www.w3.org/2000/svg" id="test">
		<path d="M25.8038 3.6703C25.4971 3.21026 25.0371 2.90356 24.5261 2.90356H20.1482V5.15239V5.25463H23.7083V27.1749L5.97152 27.1751V5.2035H6.17598H10.1999V5.10127V2.90374H5.61373H5.15369C4.38696 2.90374 3.82495 3.51712 3.82495 4.23248V28.1461C3.82495 28.9129 4.43832 29.4749 5.15369 29.4749H24.5769C25.1392 29.4749 25.599 29.1171 25.9057 28.7081C26.059 28.5037 26.1612 28.197 26.1612 27.9414V4.84592C26.1101 4.43699 26.0592 4.02807 25.8037 3.67023L25.8038 3.6703Z" fill="#A9AFBB"/>
		<path d="M20.2824 2.6609V5.62516C20.2824 6.18743 19.8223 6.64724 19.2603 6.64724L10.8788 6.64748C10.3165 6.64748 9.85668 6.18744 9.85668 5.6254L9.85645 2.66095C9.85645 2.09868 10.3165 1.63887 10.8785 1.63887H13.7038C13.956 0.240116 16.1115 0.125463 16.5076 1.63887H19.3114C19.8228 1.68999 20.2826 2.09891 20.2826 2.66095L20.2824 2.6609Z" fill="#A9AFBB"/>
	</symbol>
	<symbol width="42" height="58" viewBox="0 0 42 58" fill="none" xmlns="http://www.w3.org/2000/svg" id="lingoni-icon">
		<path d="M25.8886 57.679C25.7728 57.679 25.6604 57.672 25.5445 57.6614L25.4848 57.6509C25.0669 57.5876 24.7017 57.4469 24.4102 57.3379L24.2522 57.2781C22.4085 56.6063 20.1715 55.0868 17.8011 53.4759C15.8872 52.1746 13.9136 50.8345 12.4422 50.1838L9.27455 51.0068C7.86985 51.3726 6.49676 51.1581 5.29925 50.3948C3.1009 48.9879 1.85774 45.935 1.42228 43.5468L1.41175 43.48C0.965755 40.0964 0.618092 33.7443 0.365246 29.105C0.298523 27.9021 0.238823 26.8188 0.189658 25.9395L0.186147 25.8692L0.0105591 11.2937L0.0210943 10.9596C0.0562118 9.92202 0.101865 8.88092 0.158053 7.8574L0.161564 7.79057C0.396852 5.46217 1.42228 2.43734 3.59957 0.924933C4.89189 0.0280382 6.42301 -0.221686 8.03139 0.200383L35.3879 7.29816C38.6258 8.08251 41.6459 11.2797 40.9857 14.8004C39.89 20.7832 39.3738 31.6198 39.3597 37.3987C39.3527 40.6556 36.7364 43.9372 33.5232 44.711L26.2223 46.6068C26.5313 47.5072 26.9387 48.6222 27.3144 49.6492C27.9606 51.4113 28.5681 53.075 28.7999 53.9613C29.0492 54.911 28.8245 55.8817 28.1783 56.6274C27.5989 57.2992 26.7596 57.679 25.8886 57.679ZM12.6213 47.159L13.0462 47.3173C14.8723 48.0031 17.0812 49.5015 19.42 51.0912C21.5376 52.5333 23.7289 54.0211 25.239 54.5698L25.4216 54.6401C25.6007 54.707 25.7692 54.7703 25.8922 54.7984C25.9413 54.7949 25.9799 54.7668 26.0045 54.7421C26.0256 54.7175 26.0221 54.7105 26.0186 54.6929C25.8184 53.9402 25.2074 52.2625 24.6139 50.641C23.9115 48.7312 23.2513 46.9233 23.0055 45.9455L22.6508 44.5562L32.8279 41.9148C34.7804 41.4435 36.4766 39.3331 36.4801 37.3916C36.4976 31.5038 37.0279 20.4386 38.1552 14.2764C38.4993 12.4368 36.617 10.5586 34.7031 10.0979L34.6786 10.0944L7.30446 2.98955C6.49676 2.775 5.84358 2.87348 5.24307 3.29203C3.96128 4.18189 3.20976 6.31334 3.03066 8.04382C2.97799 9.03919 2.93233 10.0522 2.89722 11.0581L2.89019 11.3219L3.06227 25.8023C3.11495 26.6781 3.17465 27.7544 3.23786 28.9503C3.48719 33.5227 3.82783 39.7833 4.25978 43.0649C4.58988 44.8446 5.53454 47.1238 6.84794 47.9644C7.3747 48.3021 7.91551 48.3795 8.55113 48.2142L12.6213 47.159Z" fill="#555555"/>
		<path d="M17.8046 32.3689C17.8046 34.5144 16.0698 36.2519 13.9276 36.2519C11.7889 36.2519 10.0541 34.5144 10.0541 32.3689C10.0541 30.2234 11.7889 28.4858 13.9276 28.4858C16.0698 28.4858 17.8046 30.2234 17.8046 32.3689Z" fill="#555555"/>
		<path d="M30.8332 31.458C30.8332 33.6035 29.0984 35.341 26.9562 35.341C24.8175 35.341 23.0792 33.6035 23.0792 31.458C23.0792 29.3125 24.8175 27.575 26.9562 27.575C29.0984 27.575 30.8332 29.3125 30.8332 31.458Z" fill="#555555"/>
	</symbol>
</svg>
