<svg width="48" height="47" viewBox="0 0 48 47" fill="none" xmlns="http://www.w3.org/2000/svg">
<path d="M45.4476 27.475V19.7647C45.3389 19.5476 45.2847 19.2761 45.2306 19.0587C44.0901 8.36192 35.0225 0 24 0C12.9775 0 3.90967 8.36173 2.76941 19.0587C2.71525 19.2757 2.66071 19.4931 2.66071 19.7101V27.4746C1.19456 27.4746 0 28.6691 0 30.1353V37.4657C0 38.9319 1.19456 40.1264 2.66071 40.1264H2.82357C3.1493 40.9408 3.90944 41.4839 4.83251 41.4839C5.26694 41.4839 5.70137 41.321 6.08127 41.1036V43.3841C6.08127 45.2302 7.60162 46.805 9.50215 46.805H10.9138C12.7599 46.805 14.3347 45.2847 14.3347 43.3841L14.3351 24.7056C14.3351 22.8595 12.8147 21.2847 10.9142 21.2847H9.50253C8.52536 21.2847 7.65649 21.7191 7.05921 22.3706V21.2847C7.05921 11.8912 14.6608 4.28935 24.0545 4.28935C33.448 4.28935 41.0499 11.8909 41.0499 21.2847V22.3706C40.4526 21.7191 39.5837 21.2847 38.6066 21.2847H37.1949C35.3489 21.2847 33.774 22.805 33.774 24.7056V43.4384C33.774 45.2845 35.2944 46.8593 37.1949 46.8593H38.6066C40.4526 46.8593 42.0274 45.339 42.0274 43.4384V41.1579C42.3532 41.3749 42.7876 41.5382 43.2762 41.5382C44.1992 41.5382 45.0139 40.9409 45.2851 40.1265H45.3393C46.8054 40.1265 48 38.932 48 37.4658L47.9996 30.1354C47.9996 28.7234 46.8596 27.5288 45.4476 27.4747L45.4476 27.475Z" fill="white"/>
</svg>
