<svg width="48" height="46" viewBox="0 0 48 46" fill="none" xmlns="http://www.w3.org/2000/svg">
<path d="M47.6645 18.3311L33.7855 28.3742L39.1102 44.6571C39.2204 44.9967 39.0996 45.3689 38.8109 45.579C38.5225 45.7893 38.1311 45.7904 37.8414 45.5813L24.001 35.4822L10.1607 45.5813C9.87124 45.7893 9.48126 45.7883 9.19286 45.579C8.90482 45.3696 8.78338 44.9988 8.89182 44.6594L14.2165 28.3739L0.337564 18.3308C0.0502126 18.1204 -0.0695203 17.7493 0.0402902 17.4106C0.150101 17.0716 0.464487 16.8413 0.820603 16.8389L17.9521 16.8721L23.2168 0.566506C23.3287 0.228177 23.6448 0 24.0009 0C24.357 0 24.6731 0.228177 24.785 0.566506L30.0504 16.8704L47.1792 16.8392C47.5354 16.8416 47.8501 17.0719 47.9599 17.4109C48.0694 17.7495 47.9496 18.1207 47.6626 18.3311L47.6645 18.3311Z" fill="white"/>
</svg>
